FFmpeg version SVN-r25716, Copyright (c) 2000-2010 the FFmpeg developers  built on Nov 10 2010 12:23:18 with gcc 4.1.2 20080704 (Red Hat 4.1.2-48)  configuration: --enable-libmp3lame --enable-shared --disable-mmx --arch=x86_64  libavutil     50.33. 0 / 50.33. 0  libavcore      0.12. 1 /  0.12. 1  libavcodec    52.94. 4 / 52.94. 4  libavformat   52.84. 0 / 52.84. 0  libavdevice   52. 2. 2 / 52. 2. 2  libavfilter    1.59. 0 /  1.59. 0  libswscale     0.12. 0 /  0.12. 0Seems stream 0 codec frame rate differs from container frame rate: 1200.00 (1200/1) -> 20.00 (20/1)Input #0, mov,mp4,m4a,3gp,3g2,mj2, from '/RAID10/data/converted_video_files/8059.mov':  Metadata:    major_brand     : qt      minor_version   : 537199360    compatible_brands: qt    Duration: 00:00:34.90, start: 0.000000, bitrate: 1080 kb/s    Stream #0.0(eng): Video: h264, yuv420p, 328x392, 1077 kb/s, 20 fps, 20 tbr, 600 tbn, 1200 tbc[buffer @ 0xc7c77f0] w:328 h:392 pixfmt:yuv420pOutput #0, flv, to '/RAID10/data/converted_video_files/8059.flv':  Metadata:    encoder         : Lavf52.84.0    Stream #0.0(eng): Video: flv, yuv420p, 328x392, q=2-31, 600 kb/s, 1k tbn, 24 tbcStream mapping:  Stream #0.0 -> #0.0Press [q] to stop encodingframe=   57 fps=  0 q=5.6 size=     297kB time=2.83 bitrate= 857.6kbits/s    frame=  117 fps=116 q=5.8 size=     520kB time=5.83 bitrate= 729.5kbits/s    frame=  179 fps=118 q=5.4 size=     742kB time=8.96 bitrate= 678.2kbits/s    frame=  239 fps=118 q=5.4 size=     957kB time=11.96 bitrate= 655.7kbits/s    frame=  300 fps=119 q=5.6 size=    1176kB time=15.00 bitrate= 642.2kbits/s    frame=  362 fps=120 q=5.7 size=    1416kB time=18.08 bitrate= 641.3kbits/s    frame=  425 fps=120 q=5.4 size=    1644kB time=21.25 bitrate= 633.7kbits/s    frame=  489 fps=121 q=5.4 size=    1877kB time=24.46 bitrate= 628.8kbits/s    frame=  555 fps=122 q=5.6 size=    2122kB time=27.75 bitrate= 626.6kbits/s    frame=  621 fps=123 q=5.1 size=    2357kB time=31.04 bitrate= 622.1kbits/s    frame=  687 fps=124 q=5.3 size=    2607kB time=34.33 bitrate= 622.0kbits/s    frame=  698 fps=124 q=5.6 Lsize=    2648kB time=34.87 bitrate= 622.1kbits/s    video:2637kB audio:0kB global headers:0kB muxing overhead 0.421327%